<svg width="177" height="24" viewBox="0 0 177 24" fill="none" xmlns="http://www.w3.org/2000/svg">
<g clip-path="url(#clip0_2584_61512)">
<path fill-rule="evenodd" clip-rule="evenodd" d="M11.0916 23.7059L0.666073 18.7649C-0.222024 18.3335 -0.222024 17.6669 0.666073 17.2748L4.29569 15.5493L11.053 18.7649C11.941 19.1963 13.3697 19.1963 14.2192 18.7649L20.9765 15.5493L24.6061 17.2748C25.4942 17.7061 25.4942 18.3728 24.6061 18.7649L14.1806 23.7059C13.3697 24.0981 11.941 24.0981 11.0916 23.7059Z" fill="#FF6F3D"/>
<path fill-rule="evenodd" clip-rule="evenodd" d="M11.0578 17.5916L0.664044 12.6449C-0.221348 12.213 -0.221348 11.5456 0.664044 11.153L4.20561 9.46484L11.0578 12.7234C11.9432 13.1553 13.3675 13.1553 14.2144 12.7234L21.0665 9.46484L24.6081 11.153C25.4935 11.5849 25.4935 12.2523 24.6081 12.6449L14.2144 17.5916C13.329 18.0235 11.9047 18.0235 11.0578 17.5916Z" fill="#95C038"/>
<path fill-rule="evenodd" clip-rule="evenodd" d="M11.0578 11.5408L0.664044 6.66521C-0.221348 6.23956 -0.221348 5.58175 0.664044 5.1948L11.0578 0.319234C11.9432 -0.106411 13.3675 -0.106411 14.2144 0.319234L24.6081 5.1948C25.4935 5.62044 25.4935 6.27826 24.6081 6.66521L14.2144 11.5408C13.329 11.9277 11.9047 11.9277 11.0578 11.5408Z" fill="#5DC0E8"/>
<path d="M37.9476 6C34.9195 6 31.944 7.74302 31.944 12C31.944 16.257 34.9195 18 37.9476 18C40.9756 18 43.9512 16.257 43.9512 12C43.9512 7.74302 40.9756 6 37.9476 6ZM37.9476 7.67598C38.8752 7.67598 41.3257 8.02793 41.3257 12C41.3257 15.9721 38.8752 16.324 37.9476 16.324C37.0199 16.324 34.5694 15.9721 34.5694 12C34.5694 8.02793 37.0199 7.67598 37.9476 7.67598Z" fill="#333333"/>
<path d="M45.9704 6.13408V17.8659H48.4559V10.9609L48.4034 8.88268H48.4559L49.0685 10.1899L53.3393 17.8659H56.5599V6.13408H54.0744V13.0391L54.1269 15.1173H54.0744L53.4268 13.5251L49.191 6.13408H45.9704Z" fill="#333333"/>
<path d="M59.0124 6.13408V17.8659H66.3637V15.8883H61.4978V6.13408H59.0124Z" fill="#333333"/>
<path d="M64.2633 6.13408L68.7792 13.0726V17.8659H71.2646V13.1061L75.6754 6.13408H73.0499L70.512 10.257L70.0919 11.0615H70.0394L69.6543 10.257L67.1339 6.13408H64.2633Z" fill="#333333"/>
<path d="M81.4662 6C78.4382 6 75.4626 7.74302 75.4626 12C75.4626 16.257 78.4382 18 81.4662 18C84.4943 18 87.4698 16.257 87.4698 12C87.4698 7.74302 84.4943 6 81.4662 6ZM81.4662 7.67598C82.3939 7.67598 84.8443 8.02793 84.8443 12C84.8443 15.9721 82.3939 16.324 81.4662 16.324C80.5386 16.324 78.0881 15.9721 78.0881 12C78.0881 8.02793 80.5386 7.67598 81.4662 7.67598Z" fill="#333333"/>
<path d="M89.4891 6.13408V17.8659H91.9746V12.8883H96.1403V10.9609H91.9746V8.11173H96.3504V6.13408H89.4891Z" fill="#333333"/>
<path d="M98.104 6.13408V17.8659H100.589V12.8883H104.755V10.9609H100.589V8.11173H104.965V6.13408H98.104Z" fill="#333333"/>
<path d="M106.719 17.8659H109.204V6.13408H106.719V17.8659Z" fill="#333333"/>
<path d="M120.603 15.5028C119.99 15.771 119.133 16.0223 118.047 16.0223C115.842 16.0223 113.847 14.8659 113.847 12.0335C113.847 9.63687 115.474 7.97765 118.222 7.97765C119.15 7.97765 119.938 8.14525 120.655 8.41341L120.76 6.40223C119.833 6.11732 119.01 6 118.047 6C114.197 6 111.221 8.02793 111.221 12.067C111.221 16.3408 114.547 18 117.592 18C118.572 18 119.675 17.8492 120.76 17.4972L120.603 15.5028Z" fill="#333333"/>
<path d="M122.684 6.13408V17.8659H130V15.7877H125.169V12.7877H129.562V10.8603H125.169V8.21229H130V6.13408H122.684Z" fill="#333333"/>
<path d="M148.297 11.8159C148.297 13.1828 148.048 14.3255 147.55 15.2441C147.052 16.1572 146.33 16.8462 145.384 17.311C144.443 17.7703 143.3 18 141.956 18H138.66V5.86426H142.321C143.555 5.86426 144.617 6.09115 145.508 6.54492C146.399 6.99316 147.085 7.65999 147.567 8.54541C148.054 9.42529 148.297 10.5155 148.297 11.8159ZM146.812 11.8657C146.812 10.7756 146.629 9.8763 146.264 9.16797C145.904 8.45964 145.373 7.93392 144.67 7.59082C143.973 7.24219 143.118 7.06787 142.105 7.06787H140.071V16.7881H141.79C143.461 16.7881 144.714 16.3758 145.55 15.5513C146.391 14.7267 146.812 13.4982 146.812 11.8657ZM158.292 13.4346C158.292 14.1816 158.195 14.8485 158.001 15.4351C157.808 16.0216 157.528 16.5169 157.163 16.9209C156.798 17.3249 156.355 17.6348 155.835 17.8506C155.32 18.0609 154.736 18.166 154.083 18.166C153.475 18.166 152.916 18.0609 152.407 17.8506C151.903 17.6348 151.466 17.3249 151.095 16.9209C150.73 16.5169 150.445 16.0216 150.24 15.4351C150.041 14.8485 149.941 14.1816 149.941 13.4346C149.941 12.4385 150.11 11.5918 150.448 10.8945C150.785 10.1917 151.267 9.65771 151.892 9.29248C152.523 8.92171 153.273 8.73633 154.141 8.73633C154.972 8.73633 155.696 8.92171 156.316 9.29248C156.942 9.66325 157.426 10.2 157.769 10.9028C158.118 11.6001 158.292 12.444 158.292 13.4346ZM151.369 13.4346C151.369 14.165 151.466 14.7987 151.66 15.3354C151.853 15.8722 152.152 16.2873 152.556 16.5806C152.96 16.8739 153.48 17.0205 154.117 17.0205C154.747 17.0205 155.265 16.8739 155.669 16.5806C156.078 16.2873 156.38 15.8722 156.574 15.3354C156.767 14.7987 156.864 14.165 156.864 13.4346C156.864 12.7096 156.767 12.0843 156.574 11.5586C156.38 11.0273 156.081 10.6178 155.677 10.3301C155.273 10.0423 154.75 9.89844 154.108 9.89844C153.162 9.89844 152.467 10.2111 152.025 10.8364C151.588 11.4618 151.369 12.3278 151.369 13.4346ZM163.978 18.166C163.159 18.166 162.437 17.9972 161.812 17.6597C161.186 17.3221 160.699 16.8075 160.351 16.1157C160.002 15.424 159.828 14.5524 159.828 13.501C159.828 12.3997 160.01 11.5005 160.376 10.8032C160.746 10.1004 161.256 9.58024 161.903 9.24268C162.55 8.90511 163.286 8.73633 164.111 8.73633C164.565 8.73633 165.002 8.78337 165.423 8.87744C165.849 8.96598 166.197 9.07943 166.468 9.21777L166.053 10.3716C165.777 10.2609 165.456 10.1613 165.091 10.0728C164.731 9.98421 164.393 9.93994 164.078 9.93994C163.447 9.93994 162.921 10.0755 162.501 10.3467C162.086 10.6178 161.773 11.0163 161.563 11.542C161.358 12.0677 161.256 12.7152 161.256 13.4844C161.256 14.2204 161.355 14.8485 161.554 15.3687C161.759 15.8888 162.061 16.2873 162.459 16.564C162.863 16.8351 163.367 16.9707 163.97 16.9707C164.451 16.9707 164.886 16.9209 165.273 16.8213C165.66 16.7161 166.012 16.5944 166.327 16.4561V17.6846C166.023 17.8395 165.683 17.9585 165.306 18.0415C164.936 18.1245 164.493 18.166 163.978 18.166ZM174.031 15.5098C174.031 16.0908 173.884 16.5806 173.591 16.979C173.303 17.3719 172.888 17.668 172.346 17.8672C171.809 18.0664 171.167 18.166 170.42 18.166C169.784 18.166 169.233 18.1162 168.768 18.0166C168.303 17.917 167.897 17.7759 167.548 17.5933V16.3232C167.919 16.5059 168.361 16.6719 168.876 16.8213C169.391 16.9707 169.916 17.0454 170.453 17.0454C171.239 17.0454 171.809 16.9181 172.163 16.6636C172.517 16.409 172.694 16.0632 172.694 15.626C172.694 15.377 172.622 15.1584 172.479 14.9702C172.34 14.7765 172.105 14.5911 171.773 14.4141C171.441 14.2314 170.982 14.0322 170.395 13.8164C169.814 13.5951 169.31 13.3765 168.884 13.1606C168.464 12.9393 168.137 12.6709 167.905 12.3555C167.678 12.04 167.564 11.6305 167.564 11.127C167.564 10.3577 167.874 9.76839 168.494 9.35889C169.119 8.94385 169.938 8.73633 170.951 8.73633C171.499 8.73633 172.011 8.79167 172.487 8.90234C172.968 9.00749 173.417 9.15137 173.832 9.33398L173.367 10.438C172.99 10.2775 172.589 10.1419 172.163 10.0312C171.737 9.92057 171.303 9.86523 170.86 9.86523C170.223 9.86523 169.734 9.97038 169.391 10.1807C169.053 10.391 168.884 10.6787 168.884 11.0439C168.884 11.3262 168.962 11.5586 169.117 11.7412C169.277 11.9238 169.532 12.0954 169.88 12.2559C170.229 12.4163 170.688 12.6045 171.258 12.8203C171.828 13.0306 172.321 13.2492 172.736 13.4761C173.151 13.6974 173.469 13.9686 173.69 14.2896C173.917 14.605 174.031 15.0117 174.031 15.5098Z" fill="#333333"/>
</g>
<defs>
<clipPath id="clip0_2584_61512">
<rect width="177" height="24" fill="white"/>
</clipPath>
</defs>
</svg>
