<svg width="264" height="48" viewBox="0 0 264 48" fill="none" xmlns="http://www.w3.org/2000/svg">
<path fill-rule="evenodd" clip-rule="evenodd" d="M23.322 47.4118L1.87051 37.5298C0.0431628 36.6671 0.0431628 35.3338 1.87051 34.5495L9.33881 31.0986L23.2426 37.5298C25.0699 38.3925 28.0096 38.3925 29.7574 37.5298L43.6612 31.0986L51.1295 34.5495C52.9568 35.4122 52.9568 36.7455 51.1295 37.5298L29.678 47.4118C28.0096 48.1961 25.0699 48.1961 23.322 47.4118Z" fill="#FF6F3D"/>
<path fill-rule="evenodd" clip-rule="evenodd" d="M23.2525 35.1833L1.86634 25.2898C0.0445544 24.4261 0.0445544 23.0912 1.86634 22.306L9.15347 18.9297L23.2525 25.4468C25.0743 26.3105 28.005 26.3105 29.7475 25.4468L43.8465 18.9297L51.1337 22.306C52.9554 23.1698 52.9554 24.5046 51.1337 25.2898L29.7475 35.1833C27.9257 36.047 24.9951 36.047 23.2525 35.1833Z" fill="#95C038"/>
<path fill-rule="evenodd" clip-rule="evenodd" d="M23.2525 23.0815L1.86634 13.3304C0.0445544 12.4791 0.0445544 11.1635 1.86634 10.3896L23.2525 0.638466C25.0743 -0.212822 28.005 -0.212822 29.7475 0.638466L51.1337 10.3896C52.9554 11.2409 52.9554 12.5565 51.1337 13.3304L29.7475 23.0815C27.9257 23.8554 24.9951 23.8554 23.2525 23.0815Z" fill="#5DC0E8"/>
<path fill-rule="evenodd" clip-rule="evenodd" d="M64.9688 24C64.9688 15.2968 70.9021 11.7333 76.9402 11.7333C82.9783 11.7333 88.9117 15.2968 88.9117 24C88.9117 32.7031 82.9783 36.2666 76.9402 36.2666C70.9021 36.2666 64.9688 32.7031 64.9688 24ZM83.6763 24C83.6763 15.8793 78.79 15.1598 76.9402 15.1598C75.0904 15.1598 70.2041 15.8793 70.2041 24C70.2041 32.1207 75.0904 32.8402 76.9402 32.8402C78.79 32.8402 83.6763 32.1207 83.6763 24ZM97.8943 35.9925H92.9382V12.0075H99.3602L107.807 27.1181L109.098 30.3732H109.203L109.098 26.1244V12.0075H114.054V35.9925H107.632L99.1159 20.2994L97.8943 17.6268H97.7896L97.8943 21.8756V35.9925ZM118.944 35.9925H133.603V31.9493H123.901V12.0075H118.944V35.9925ZM138.42 26.1929L129.415 12.0075H135.139L140.165 20.4365L140.933 22.0812H141.038L141.875 20.4365L146.936 12.0075H152.171L143.376 26.2614V35.9925H138.42V26.1929ZM163.719 11.7333C157.68 11.7333 151.747 15.2968 151.747 24C151.747 32.7031 157.68 36.2666 163.719 36.2666C169.757 36.2666 175.69 32.7031 175.69 24C175.69 15.2968 169.757 11.7333 163.719 11.7333ZM163.719 15.1598C165.568 15.1598 170.455 15.8793 170.455 24C170.455 32.1207 165.568 32.8402 163.719 32.8402C161.869 32.8402 156.982 32.1207 156.982 24C156.982 15.8793 161.869 15.1598 163.719 15.1598ZM184.673 35.9925H179.717V12.0075H193.398V16.0507H184.673V21.8756H192.979V25.816H184.673V35.9925ZM196.895 35.9925H201.851V25.816H210.158V21.8756H201.851V16.0507H210.577V12.0075H196.895V35.9925ZM219.03 35.9925H214.073V12.0075H219.03V35.9925ZM241.759 31.1612C240.537 31.7095 238.827 32.2234 236.663 32.2234C232.265 32.2234 228.287 29.8592 228.287 24.0685C228.287 19.1687 231.532 15.7765 237.012 15.7765C238.862 15.7765 240.433 16.1192 241.864 16.6674L242.073 12.5557C240.223 11.9732 238.583 11.7333 236.663 11.7333C228.985 11.7333 223.051 15.8793 223.051 24.137C223.051 32.8745 229.683 36.2666 235.756 36.2666C237.71 36.2666 239.909 35.9583 242.073 35.2387L241.759 31.1612ZM260.497 35.9925H245.908V12.0075H260.497V16.2562H250.864V21.67H259.625V25.6104H250.864V31.7437H260.497V35.9925Z" fill="#333333"/>
</svg>
