<svg xmlns="http://www.w3.org/2000/svg" width="16" height="16" viewBox="0 0 16 16" fill="none">
  <path d="M2 12C3.10457 12 4 12.8954 4 14C4 15.1046 3.10457 16 2 16C0.895431 16 0 15.1046 0 14C0 12.8954 0.895431 12 2 12ZM15 13C15.5523 13 16 13.4477 16 14C16 14.5523 15.5523 15 15 15H7C6.44772 15 6 14.5523 6 14C6 13.4477 6.44772 13 7 13H15ZM2 6C3.10457 6 4 6.89543 4 8C4 9.10457 3.10457 10 2 10C0.895431 10 0 9.10457 0 8C0 6.89543 0.895431 6 2 6ZM15 7C15.5523 7 16 7.44772 16 8C16 8.55229 15.5523 9 15 9H7C6.44772 9 6 8.55228 6 8C6 7.44772 6.44772 7 7 7H15ZM5 1L2 4L0 2L1 1L2 2L4 0L5 1ZM15 1C15.5523 1 16 1.44772 16 2C16 2.55228 15.5523 3 15 3H7C6.44772 3 6 2.55228 6 2C6 1.44772 6.44772 1 7 1H15Z" fill="#4781D1"/>
</svg>
