<svg xmlns="http://www.w3.org/2000/svg" width="15" height="15" viewBox="0 0 15 15" fill="none">
  <path fill-rule="evenodd" clip-rule="evenodd" d="M6 2C3.79086 2 2 3.79086 2 6C2 8.20914 3.79086 10 6 10C7.11917 10 8.12948 9.54169 8.85662 8.79996C9.56492 8.07743 10 7.09052 10 6C10 3.79086 8.20914 2 6 2ZM0 6C0 2.68629 2.68629 0 6 0C9.31371 0 12 2.68629 12 6C12 7.27975 11.5985 8.46696 10.9157 9.44095L14.7127 13.2985L13.2873 14.7015L9.51157 10.8655C8.52464 11.5788 7.31096 12 6 12C2.68629 12 0 9.31371 0 6Z" fill="#4781D1"/>
</svg>
