<svg xmlns="http://www.w3.org/2000/svg" width="12" height="16" viewBox="0 0 12 16" fill="none">
  <path fill-rule="evenodd" clip-rule="evenodd" d="M6.20005 0.400017C6.4583 0.0556712 6.90792 -0.0847177 7.31626 0.0513844C7.72432 0.187638 7.99984 0.569383 7.99986 0.999627V5.99963H10.9999C11.3786 5.99963 11.725 6.21358 11.8944 6.55236C12.0636 6.89103 12.0268 7.29633 11.7997 7.59924L5.79966 15.5992C5.54136 15.9433 5.09165 16.0839 4.68345 15.9479C4.2753 15.8118 4.00004 15.4298 3.99986 14.9996V9.99963H0.999856C0.621249 9.99958 0.274752 9.78546 0.105325 9.44689C-0.0639742 9.10829 -0.026879 8.70298 0.200051 8.40002L6.20005 0.400017ZM2.99888 7.99963H4.99986C5.26507 7.99963 5.51935 8.10506 5.70689 8.29259C5.89432 8.48012 5.99986 8.73449 5.99986 8.99963V11.9996L9.00083 7.99963H6.99986C6.44779 7.99955 6.00011 7.55165 5.99986 6.99963V3.99865L2.99888 7.99963Z" fill="#4781D1"/>
</svg>
