<svg xmlns="http://www.w3.org/2000/svg" width="16" height="16" viewBox="0 0 16 16" fill="none">
  <g clip-path="url(#clip0_5710_58858)">
    <path d="M13.3146 11.7886C13.6808 12.252 13.5568 12.9329 12.9983 13.1793L12.6047 13.345C10.7352 14.1036 7.52043 14.9512 5.01577 13.2401C4.99506 13.2653 4.97372 13.2904 4.95017 13.314L2.82885 15.4353C2.4384 15.8257 1.80518 15.8256 1.41464 15.4353L0.707531 14.7282C0.317007 14.3376 0.317007 13.7045 0.707531 13.314L2.82885 11.1926C2.85214 11.1693 2.87576 11.1468 2.90067 11.1263C1.06351 8.43601 2.17888 4.92591 2.96351 3.14446C3.22625 2.54883 3.98283 2.44728 4.44332 2.9076L13.2352 11.6995L13.3146 11.7886ZM4.22787 5.52059C4.06567 6.09856 3.94291 6.7239 3.91092 7.35119C3.8483 8.57986 4.1306 9.66585 4.9916 10.527L5.61585 11.1512C6.47697 12.0121 7.56296 12.2945 8.79161 12.2319C9.41889 12.1999 10.0443 12.0771 10.6222 11.9149L4.22787 5.52059ZM10.607 0.58603C10.9973 0.976572 10.9975 1.60979 10.607 2.00024L8.13215 4.47512C7.93696 4.67031 7.62033 4.67016 7.42505 4.47512L6.71794 3.76801C6.52268 3.57275 6.52268 3.25617 6.71794 3.0609L9.19281 0.58603C9.58334 0.195505 10.2165 0.195505 10.607 0.58603ZM15.5568 5.53578C15.9471 5.92632 15.9472 6.55954 15.5568 6.94999L13.0819 9.42486C12.8867 9.62005 12.5701 9.61991 12.3748 9.42486L11.6677 8.71776C11.4724 8.5225 11.4724 8.20591 11.6677 8.01065L14.1426 5.53578C14.5331 5.14525 15.1662 5.14525 15.5568 5.53578Z" fill="#4781D1"/>
  </g>
  <defs>
    <clipPath id="clip0_5710_58858">
      <rect width="16" height="16" fill="white"/>
    </clipPath>
  </defs>
</svg>
