<svg width="90" height="84" viewBox="0 0 90 84" fill="none" xmlns="http://www.w3.org/2000/svg">
<g filter="url(#filter0_d_5203_35711)">
<rect x="7.25" y="76.5" width="60" height="81" rx="3" transform="rotate(-90 7.25 76.5)" fill="white"/>
</g>
<g opacity="0.3">
<path d="M13.25 69.5L13.25 60.5H22.25V69.5H13.25Z" fill="#3AA133"/>
<path d="M25.25 69.5V60.5H34.25V69.5H25.25Z" fill="#3AA133"/>
<path d="M37.25 69.5V60.5H46.25V69.5H37.25Z" fill="#3AA133"/>
<path d="M49.25 69.5V60.5H58.25V69.5H49.25Z" fill="#3AA133"/>
<path d="M61.25 69.5V60.5H70.25V69.5H61.25Z" fill="#3AA133"/>
<path d="M73.25 69.5V60.5H82.25V69.5H73.25Z" fill="#3AA133"/>
<path d="M13.25 57.5L13.25 48.5H22.25V57.5H13.25Z" fill="#3AA133"/>
<path d="M25.25 57.5V48.5H34.25V57.5H25.25Z" fill="#3AA133"/>
<path d="M37.25 57.5V48.5H46.25V57.5H37.25Z" fill="#3AA133"/>
<path d="M49.25 57.5V48.5H58.25V57.5H49.25Z" fill="#3AA133"/>
<path d="M61.25 57.5V48.5H70.25V57.5H61.25Z" fill="#3AA133"/>
<path d="M73.25 57.5V48.5H82.25V57.5H73.25Z" fill="#3AA133"/>
<path d="M13.25 45.5L13.25 36.5H22.25V45.5H13.25Z" fill="#3AA133"/>
<path d="M25.25 45.5V36.5H34.25V45.5H25.25Z" fill="#3AA133"/>
<path d="M37.25 45.5V36.5H46.25V45.5H37.25Z" fill="#3AA133"/>
<path d="M49.25 45.5V36.5H58.25V45.5H49.25Z" fill="#3AA133"/>
<path d="M61.25 45.5V36.5H70.25V45.5H61.25Z" fill="#3AA133"/>
<path d="M73.25 45.5V36.5H82.25V45.5H73.25Z" fill="#3AA133"/>
<path d="M13.25 33.5L13.25 24.5L22.25 24.5V33.5L13.25 33.5Z" fill="#3AA133"/>
<path d="M25.25 33.5V24.5L34.25 24.5V33.5L25.25 33.5Z" fill="#3AA133"/>
<path d="M37.25 33.5V24.5L46.25 24.5V33.5L37.25 33.5Z" fill="#3AA133"/>
<path d="M49.25 33.5V24.5L58.25 24.5V33.5L49.25 33.5Z" fill="#3AA133"/>
<path d="M61.25 33.5V24.5L70.25 24.5V33.5L61.25 33.5Z" fill="#3AA133"/>
<path d="M73.25 33.5V24.5L82.25 24.5V33.5L73.25 33.5Z" fill="#3AA133"/>
</g>
<g clip-path="url(#paint0_angular_5203_35711_clip_path)" data-figma-skip-parse="true"><g transform="matrix(-0.019 0.00975 -0.019 -0.00975 19 9.75)"><foreignObject x="-1058.2" y="-1058.2" width="2116.4" height="2116.4"><div xmlns="http://www.w3.org/1999/xhtml" style="background:conic-gradient(from 90deg,rgba(91, 181, 20, 1) 0deg,rgba(49, 140, 43, 1) 360deg);height:100%;width:100%;opacity:1"></div></foreignObject></g></g><rect width="38" height="19.5" rx="4.5" data-figma-gradient-fill="{&#34;type&#34;:&#34;GRADIENT_ANGULAR&#34;,&#34;stops&#34;:[{&#34;color&#34;:{&#34;r&#34;:0.35686275362968445,&#34;g&#34;:0.70980393886566162,&#34;b&#34;:0.078431375324726105,&#34;a&#34;:1.0},&#34;position&#34;:0.0},{&#34;color&#34;:{&#34;r&#34;:0.19340394437313080,&#34;g&#34;:0.55080002546310425,&#34;b&#34;:0.16911488771438599,&#34;a&#34;:1.0},&#34;position&#34;:1.0}],&#34;stopsVar&#34;:[{&#34;color&#34;:{&#34;r&#34;:0.35686275362968445,&#34;g&#34;:0.70980393886566162,&#34;b&#34;:0.078431375324726105,&#34;a&#34;:1.0},&#34;position&#34;:0.0},{&#34;color&#34;:{&#34;r&#34;:0.19340394437313080,&#34;g&#34;:0.55080002546310425,&#34;b&#34;:0.16911488771438599,&#34;a&#34;:1.0},&#34;position&#34;:1.0}],&#34;transform&#34;:{&#34;m00&#34;:-38.0,&#34;m01&#34;:-38.0,&#34;m02&#34;:57.0,&#34;m10&#34;:19.50,&#34;m11&#34;:-19.50,&#34;m12&#34;:9.750},&#34;opacity&#34;:1.0,&#34;blendMode&#34;:&#34;NORMAL&#34;,&#34;visible&#34;:true}"/>
<path d="M12.5254 14H10.2812L8.83398 11.2637C8.7793 11.1621 8.72266 10.9746 8.66406 10.7012H8.64062C8.61328 10.8301 8.54883 11.0254 8.44727 11.2871L6.99414 14H4.73828L7.41602 9.79883L4.9668 5.59766H7.26953L8.4707 8.11719C8.56445 8.31641 8.64844 8.55273 8.72266 8.82617H8.74609C8.79297 8.66211 8.88086 8.41797 9.00977 8.09375L10.3457 5.59766H12.4551L9.93555 9.76367L12.5254 14ZM18.5312 14H13.5273V5.59766H15.4199V12.4648H18.5312V14ZM19.2812 13.6777V11.8027C19.6211 12.0879 19.9902 12.3027 20.3887 12.4473C20.7871 12.5879 21.1895 12.6582 21.5957 12.6582C21.834 12.6582 22.041 12.6367 22.2168 12.5938C22.3965 12.5508 22.5449 12.4922 22.6621 12.418C22.7832 12.3398 22.873 12.25 22.9316 12.1484C22.9902 12.043 23.0195 11.9297 23.0195 11.8086C23.0195 11.6445 22.9727 11.498 22.8789 11.3691C22.7852 11.2402 22.6562 11.1211 22.4922 11.0117C22.332 10.9023 22.1406 10.7969 21.918 10.6953C21.6953 10.5938 21.4551 10.4902 21.1973 10.3848C20.541 10.1113 20.0508 9.77734 19.7266 9.38281C19.4062 8.98828 19.2461 8.51172 19.2461 7.95312C19.2461 7.51562 19.334 7.14062 19.5098 6.82812C19.6855 6.51172 19.9238 6.25195 20.2246 6.04883C20.5293 5.8457 20.8809 5.69727 21.2793 5.60352C21.6777 5.50586 22.0996 5.45703 22.5449 5.45703C22.9824 5.45703 23.3691 5.48438 23.7051 5.53906C24.0449 5.58984 24.3574 5.66992 24.6426 5.7793V7.53125C24.502 7.43359 24.3477 7.34766 24.1797 7.27344C24.0156 7.19922 23.8457 7.13867 23.6699 7.0918C23.4941 7.04102 23.3184 7.00391 23.1426 6.98047C22.9707 6.95703 22.8066 6.94531 22.6504 6.94531C22.4355 6.94531 22.2402 6.9668 22.0645 7.00977C21.8887 7.04883 21.7402 7.10547 21.6191 7.17969C21.498 7.25391 21.4043 7.34375 21.3379 7.44922C21.2715 7.55078 21.2383 7.66602 21.2383 7.79492C21.2383 7.93555 21.2754 8.0625 21.3496 8.17578C21.4238 8.28516 21.5293 8.39062 21.666 8.49219C21.8027 8.58984 21.9688 8.6875 22.1641 8.78516C22.3594 8.87891 22.5801 8.97656 22.8262 9.07812C23.1621 9.21875 23.4629 9.36914 23.7285 9.5293C23.998 9.68555 24.2285 9.86328 24.4199 10.0625C24.6113 10.2617 24.7578 10.4902 24.8594 10.748C24.9609 11.002 25.0117 11.2988 25.0117 11.6387C25.0117 12.1074 24.9219 12.502 24.7422 12.8223C24.5664 13.1387 24.3262 13.3965 24.0215 13.5957C23.7168 13.791 23.3613 13.9316 22.9551 14.0176C22.5527 14.1035 22.127 14.1465 21.6777 14.1465C21.2168 14.1465 20.7773 14.1074 20.3594 14.0293C19.9453 13.9512 19.5859 13.834 19.2812 13.6777ZM33.2559 14H31.0117L29.5645 11.2637C29.5098 11.1621 29.4531 10.9746 29.3945 10.7012H29.3711C29.3438 10.8301 29.2793 11.0254 29.1777 11.2871L27.7246 14H25.4688L28.1465 9.79883L25.6973 5.59766H28L29.2012 8.11719C29.2949 8.31641 29.3789 8.55273 29.4531 8.82617H29.4766C29.5234 8.66211 29.6113 8.41797 29.7402 8.09375L31.0762 5.59766H33.1855L30.666 9.76367L33.2559 14Z" fill="white"/>
<defs>
<filter id="filter0_d_5203_35711" x="5.75" y="15.75" width="84" height="63" filterUnits="userSpaceOnUse" color-interpolation-filters="sRGB">
<feFlood flood-opacity="0" result="BackgroundImageFix"/>
<feColorMatrix in="SourceAlpha" type="matrix" values="0 0 0 0 0 0 0 0 0 0 0 0 0 0 0 0 0 0 127 0" result="hardAlpha"/>
<feOffset dy="0.75"/>
<feGaussianBlur stdDeviation="0.75"/>
<feComposite in2="hardAlpha" operator="out"/>
<feColorMatrix type="matrix" values="0 0 0 0 0 0 0 0 0 0 0 0 0 0 0 0 0 0 0.3 0"/>
<feBlend mode="normal" in2="BackgroundImageFix" result="effect1_dropShadow_5203_35711"/>
<feBlend mode="normal" in="SourceGraphic" in2="effect1_dropShadow_5203_35711" result="shape"/>
</filter>
<clipPath id="paint0_angular_5203_35711_clip_path"><rect width="38" height="19.5" rx="4.5"/></clipPath></defs>
</svg>
