<svg width="110" height="115" viewBox="0 0 110 115" fill="none" xmlns="http://www.w3.org/2000/svg">
  <g filter="url(#room_shadow)">
    <rect x="14" y="12" width="80" height="100" rx="6" fill="white"/>
  </g>

  <rect x="14" y="12" width="80" height="14" rx="6" fill="#FFE0DA"/>
  <rect x="14" y="20" width="80" height="6" fill="#FFE0DA"/>

  <circle cx="22" cy="19" r="2" fill="#F7CAC4"/>
  <circle cx="30" cy="19" r="2" fill="#FFD18C"/>
  <circle cx="38" cy="19" r="2" fill="#B9D1F2"/>

  <rect x="28" y="40" width="52" height="50" rx="6" stroke="#F7CAC4" stroke-width="4" fill="none"/>
  <rect x="35" y="47" width="13" height="13" rx="2" fill="#F7CAC4"/>
  <rect x="60" y="47" width="13" height="13" rx="2" fill="#FFD18C"/>
  <rect x="35" y="70" width="13" height="13" rx="2" fill="#B9D1F2"/>
  <rect x="60" y="70" width="13" height="13" rx="2" fill="#C4E2C2"/>

  <rect x="0.5" y="0" width="50" height="26" rx="6" fill="url(#room_badge_gradient)"/>
  <text x="25.5" y="18" text-anchor="middle" font-family="Arial, sans-serif" font-size="11" font-weight="800" fill="white" letter-spacing="0.5">ROOM</text>

  <g filter="url(#plus_shadow)">
    <circle cx="85" cy="92" r="14" fill="url(#plus_gradient)"/>
  </g>
  <rect x="83.5" y="85" width="3" height="14" rx="1" fill="white"/>
  <rect x="78" y="90.5" width="14" height="3" rx="1" fill="white"/>

  <defs>
    <filter id="room_shadow" x="12" y="11" width="84" height="104" filterUnits="userSpaceOnUse" color-interpolation-filters="sRGB">
      <feFlood flood-opacity="0" result="BackgroundImageFix"/>
      <feColorMatrix in="SourceAlpha" type="matrix" values="0 0 0 0 0 0 0 0 0 0 0 0 0 0 0 0 0 0 127 0" result="hardAlpha"/>
      <feOffset dy="1"/>
      <feGaussianBlur stdDeviation="1"/>
      <feComposite in2="hardAlpha" operator="out"/>
      <feColorMatrix type="matrix" values="0 0 0 0 0 0 0 0 0 0 0 0 0 0 0 0 0 0 0.3 0"/>
      <feBlend mode="normal" in2="BackgroundImageFix" result="effect1_dropShadow"/>
      <feBlend mode="normal" in="SourceGraphic" in2="effect1_dropShadow" result="shape"/>
    </filter>
    <linearGradient id="room_badge_gradient" x1="0.5" y1="0" x2="50.5" y2="26" gradientUnits="userSpaceOnUse">
      <stop stop-color="#F36653"/>
      <stop offset="1" stop-color="#D1402C"/>
    </linearGradient>
    <linearGradient id="plus_gradient" x1="71" y1="78" x2="99" y2="106" gradientUnits="userSpaceOnUse">
      <stop stop-color="#FF7A68"/>
      <stop offset="1" stop-color="#D4432F"/>
    </linearGradient>
    <filter id="plus_shadow" x="61" y="70" width="48" height="48" filterUnits="userSpaceOnUse" color-interpolation-filters="sRGB">
      <feFlood flood-opacity="0" result="BackgroundImageFix"/>
      <feColorMatrix in="SourceAlpha" type="matrix" values="0 0 0 0 0 0 0 0 0 0 0 0 0 0 0 0 0 0 127 0" result="hardAlpha"/>
      <feOffset dy="2"/>
      <feGaussianBlur stdDeviation="5"/>
      <feComposite in2="hardAlpha" operator="out"/>
      <feColorMatrix type="matrix" values="0 0 0 0 1 0 0 0 0 1 0 0 0 0 1 0 0 0 1 0"/>
      <feBlend mode="normal" in2="BackgroundImageFix" result="effect1_dropShadow"/>
      <feBlend mode="normal" in="SourceGraphic" in2="effect1_dropShadow" result="shape"/>
    </filter>
  </defs>
</svg>
