<svg width="16" height="16" viewBox="0 0 16 16" fill="none" xmlns="http://www.w3.org/2000/svg">
<mask id="path-1-inside-1_1986_186401" fill="white">
<path d="M8 0C11.3137 0 14 2.68629 14 6C14 7.80852 13.1995 9.42934 11.9337 10.529C11.268 11.1073 11 12.1182 11 13V13.5C11 14.8807 9.88071 16 8.5 16H7.5C6.11929 16 5 14.8807 5 13.5V13C5 12.1183 4.73125 11.1073 4.06574 10.5289C2.80025 9.42918 2 7.80831 2 6C2 2.68629 4.68629 0 8 0Z"/>
</mask>
<path d="M11 13.5H13V13.5H11ZM7.5 16V18V18V16ZM11.9337 10.529L10.622 9.01917L11.9337 10.529ZM8 0V2C10.2091 2 12 3.79086 12 6H14H16C16 1.58172 12.4183 -2 8 -2V0ZM14 6H12C12 7.20475 11.4695 8.28297 10.622 9.01917L11.9337 10.529L13.2453 12.0388C14.9295 10.5757 16 8.41229 16 6H14ZM11 13H9V13.5H11H13V13H11ZM11 13.5H9C9 13.7761 8.77614 14 8.5 14V16V18C10.9853 18 13 15.9853 13 13.5H11ZM8.5 16V14H7.5V16V18H8.5V16ZM7.5 16V14C7.22386 14 7 13.7761 7 13.5H5H3C3 15.9853 5.01472 18 7.5 18V16ZM5 13.5H7V13H5H3V13.5H5ZM4.06574 10.5289L5.37763 9.01932C4.53044 8.28308 4 7.20476 4 6H2H0C0 8.41187 1.07006 10.5753 2.75384 12.0385L4.06574 10.5289ZM2 6H4C4 3.79086 5.79086 2 8 2V0V-2C3.58172 -2 0 1.58172 0 6H2ZM5 13H7C7 11.8463 6.66825 10.1409 5.37763 9.01932L4.06574 10.5289L2.75384 12.0385C2.75237 12.0373 2.76929 12.0516 2.79689 12.0957C2.82498 12.1406 2.85923 12.2087 2.89207 12.3038C2.9602 12.501 3 12.7497 3 13H5ZM11.9337 10.529L10.622 9.01917C9.33037 10.1413 9 11.8476 9 13H11H13C13 12.7491 13.0398 12.5002 13.1078 12.3032C13.1772 12.102 13.2456 12.0385 13.2453 12.0388L11.9337 10.529Z" fill="#333333" mask="url(#path-1-inside-1_1986_186401)"/>
<rect x="6" y="11" width="4" height="2" fill="#333333"/>
<path d="M6.5 7.5L8 8M9.5 7.5L8 8M8 9V8" stroke="#333333" stroke-width="2" stroke-linecap="round"/>
</svg>
