<svg width="108" height="103" viewBox="0 0 108 103" fill="none" xmlns="http://www.w3.org/2000/svg">
<g filter="url(#filter0_d_5124_48035)">
<rect x="14" y="10" width="80" height="80" rx="4" fill="white"/>
</g>
<rect x="30" y="26" width="19.5918" height="19.5918" rx="0.979592" fill="url(#paint0_linear_5124_48035)" fill-opacity="0.7"/>
<rect x="58.4082" y="26" width="19.5918" height="19.5918" rx="0.979592" fill="url(#paint1_linear_5124_48035)" fill-opacity="0.7"/>
<rect x="30" y="54.4082" width="19.5918" height="19.5918" rx="0.979592" fill="url(#paint2_linear_5124_48035)" fill-opacity="0.7"/>
<rect x="58.4082" y="54.4082" width="19.5918" height="19.5918" rx="0.979592" fill="url(#paint3_linear_5124_48035)" fill-opacity="0.7"/>
<g clip-path="url(#paint4_angular_5124_48035_clip_path)" data-figma-skip-parse="true"><g transform="matrix(-0.016 0.016 -0.016 -0.0105319 91 87)"><foreignObject x="-1206.1" y="-1206.1" width="2412.19" height="2412.19"><div xmlns="http://www.w3.org/1999/xhtml" style="background:conic-gradient(from 90deg,rgba(64, 140, 216, 1) 0deg,rgba(86, 151, 216, 1) 360deg);height:100%;width:100%;opacity:1"></div></foreignObject></g></g><circle cx="91" cy="87" r="16" data-figma-gradient-fill="{&#34;type&#34;:&#34;GRADIENT_ANGULAR&#34;,&#34;stops&#34;:[{&#34;color&#34;:{&#34;r&#34;:0.25212395191192627,&#34;g&#34;:0.55096060037612915,&#34;b&#34;:0.84979718923568726,&#34;a&#34;:1.0},&#34;position&#34;:0.0},{&#34;color&#34;:{&#34;r&#34;:0.33924937248229980,&#34;g&#34;:0.59262162446975708,&#34;b&#34;:0.84932768344879150,&#34;a&#34;:1.0},&#34;position&#34;:1.0}],&#34;stopsVar&#34;:[{&#34;color&#34;:{&#34;r&#34;:0.25212395191192627,&#34;g&#34;:0.55096060037612915,&#34;b&#34;:0.84979718923568726,&#34;a&#34;:1.0},&#34;position&#34;:0.0},{&#34;color&#34;:{&#34;r&#34;:0.33924937248229980,&#34;g&#34;:0.59262162446975708,&#34;b&#34;:0.84932768344879150,&#34;a&#34;:1.0},&#34;position&#34;:1.0}],&#34;transform&#34;:{&#34;m00&#34;:-32.0,&#34;m01&#34;:-32.0,&#34;m02&#34;:123.0,&#34;m10&#34;:32.0,&#34;m11&#34;:-21.063724517822266,&#34;m12&#34;:81.53186035156250},&#34;opacity&#34;:1.0,&#34;blendMode&#34;:&#34;NORMAL&#34;,&#34;visible&#34;:true}"/>
<g clip-path="url(#clip0_5124_48035)">
<path fill-rule="evenodd" clip-rule="evenodd" d="M91.0001 79C91.3902 79 91.7447 79.2269 91.9081 79.5812L93.6486 83.3546L97.7752 83.8438C98.1626 83.8898 98.488 84.1568 98.6085 84.5279C98.7291 84.8989 98.6229 85.3062 98.3364 85.5711L95.2855 88.3924L96.0954 92.4682C96.1714 92.8509 96.018 93.2428 95.7024 93.4721C95.3867 93.7015 94.9666 93.7263 94.6261 93.5357L91.0001 91.506L87.374 93.5357C87.0336 93.7263 86.6134 93.7015 86.2978 93.4721C85.9822 93.2428 85.8287 92.8509 85.9048 92.4682L86.7146 88.3924L83.6637 85.5711C83.3773 85.3062 83.2711 84.8989 83.3916 84.5279C83.5122 84.1568 83.8375 83.8898 84.2249 83.8438L88.3515 83.3546L90.092 79.5812C90.2554 79.2269 90.6099 79 91.0001 79ZM91.0001 82.3875L89.9332 84.7005C89.7875 85.0164 89.4882 85.2338 89.1429 85.2747L86.6133 85.5747L88.4835 87.3041C88.7388 87.5402 88.8531 87.8921 88.7854 88.2332L88.2889 90.7316L90.5116 89.4874C90.8151 89.3175 91.1851 89.3175 91.4885 89.4874L93.7112 90.7316L93.2148 88.2332C93.147 87.8921 93.2613 87.5402 93.5167 87.3041L95.3868 85.5747L92.8573 85.2747C92.5119 85.2338 92.2127 85.0164 92.067 84.7005L91.0001 82.3875Z" fill="white"/>
</g>
<defs>
<filter id="filter0_d_5124_48035" x="12" y="9" width="84" height="84" filterUnits="userSpaceOnUse" color-interpolation-filters="sRGB">
<feFlood flood-opacity="0" result="BackgroundImageFix"/>
<feColorMatrix in="SourceAlpha" type="matrix" values="0 0 0 0 0 0 0 0 0 0 0 0 0 0 0 0 0 0 127 0" result="hardAlpha"/>
<feOffset dy="1"/>
<feGaussianBlur stdDeviation="1"/>
<feComposite in2="hardAlpha" operator="out"/>
<feColorMatrix type="matrix" values="0 0 0 0 0 0 0 0 0 0 0 0 0 0 0 0 0 0 0.3 0"/>
<feBlend mode="normal" in2="BackgroundImageFix" result="effect1_dropShadow_5124_48035"/>
<feBlend mode="normal" in="SourceGraphic" in2="effect1_dropShadow_5124_48035" result="shape"/>
</filter>
<clipPath id="paint4_angular_5124_48035_clip_path"><circle cx="91" cy="87" r="16"/></clipPath><linearGradient id="paint0_linear_5124_48035" x1="44.6939" y1="26" x2="44.898" y2="44.5714" gradientUnits="userSpaceOnUse">
<stop stop-color="#5797D9"/>
<stop offset="1" stop-color="#408CD9"/>
</linearGradient>
<linearGradient id="paint1_linear_5124_48035" x1="73.1021" y1="26" x2="73.3062" y2="44.5714" gradientUnits="userSpaceOnUse">
<stop stop-color="#5797D9"/>
<stop offset="1" stop-color="#408CD9"/>
</linearGradient>
<linearGradient id="paint2_linear_5124_48035" x1="44.6939" y1="54.4082" x2="44.898" y2="72.9796" gradientUnits="userSpaceOnUse">
<stop stop-color="#5797D9"/>
<stop offset="1" stop-color="#408CD9"/>
</linearGradient>
<linearGradient id="paint3_linear_5124_48035" x1="73.1021" y1="54.4082" x2="73.3062" y2="72.9796" gradientUnits="userSpaceOnUse">
<stop stop-color="#5797D9"/>
<stop offset="1" stop-color="#408CD9"/>
</linearGradient>
<clipPath id="clip0_5124_48035">
<rect width="16" height="16" fill="white" transform="translate(83 79)"/>
</clipPath>
</defs>
</svg>
