<svg width="108" height="100" viewBox="0 0 108 100" fill="none" xmlns="http://www.w3.org/2000/svg">
<g filter="url(#filter0_d_5124_47667)">
<rect x="14" y="10" width="80" height="80" rx="4" fill="white"/>
</g>
<rect x="30" y="26" width="19.5918" height="19.5918" rx="0.979592" fill="url(#paint0_linear_5124_47667)" fill-opacity="0.7"/>
<rect x="58.4082" y="26" width="19.5918" height="19.5918" rx="0.979592" fill="url(#paint1_linear_5124_47667)" fill-opacity="0.7"/>
<rect x="30" y="54.4082" width="19.5918" height="19.5918" rx="0.979592" fill="url(#paint2_linear_5124_47667)" fill-opacity="0.7"/>
<rect x="58.4082" y="54.4082" width="19.5918" height="19.5918" rx="0.979592" fill="url(#paint3_linear_5124_47667)" fill-opacity="0.7"/>
<path d="M96 80C97.1046 80 98 80.8954 98 82V92C98 93.1046 97.1046 94 96 94H86C84.8954 94 84 93.1046 84 92V82C84 80.8954 84.8954 80 86 80H96ZM86 82V92H96V82H86ZM95 89V91H91V89H95ZM95 86V88H87V86H95ZM95 83V85H87V83H95Z" fill="white"/>
<defs>
<filter id="filter0_d_5124_47667" x="12" y="9" width="84" height="84" filterUnits="userSpaceOnUse" color-interpolation-filters="sRGB">
<feFlood flood-opacity="0" result="BackgroundImageFix"/>
<feColorMatrix in="SourceAlpha" type="matrix" values="0 0 0 0 0 0 0 0 0 0 0 0 0 0 0 0 0 0 127 0" result="hardAlpha"/>
<feOffset dy="1"/>
<feGaussianBlur stdDeviation="1"/>
<feComposite in2="hardAlpha" operator="out"/>
<feColorMatrix type="matrix" values="0 0 0 0 0 0 0 0 0 0 0 0 0 0 0 0 0 0 0.3 0"/>
<feBlend mode="normal" in2="BackgroundImageFix" result="effect1_dropShadow_5124_47667"/>
<feBlend mode="normal" in="SourceGraphic" in2="effect1_dropShadow_5124_47667" result="shape"/>
</filter>
<linearGradient id="paint0_linear_5124_47667" x1="44.6939" y1="26" x2="44.898" y2="44.5714" gradientUnits="userSpaceOnUse">
<stop stop-color="#5797D9"/>
<stop offset="1" stop-color="#408CD9"/>
</linearGradient>
<linearGradient id="paint1_linear_5124_47667" x1="73.1021" y1="26" x2="73.3062" y2="44.5714" gradientUnits="userSpaceOnUse">
<stop stop-color="#5797D9"/>
<stop offset="1" stop-color="#408CD9"/>
</linearGradient>
<linearGradient id="paint2_linear_5124_47667" x1="44.6939" y1="54.4082" x2="44.898" y2="72.9796" gradientUnits="userSpaceOnUse">
<stop stop-color="#5797D9"/>
<stop offset="1" stop-color="#408CD9"/>
</linearGradient>
<linearGradient id="paint3_linear_5124_47667" x1="73.1021" y1="54.4082" x2="73.3062" y2="72.9796" gradientUnits="userSpaceOnUse">
<stop stop-color="#5797D9"/>
<stop offset="1" stop-color="#408CD9"/>
</linearGradient>
</defs>
</svg>
