<svg width="81" height="78" viewBox="0 0 81 78" fill="none" xmlns="http://www.w3.org/2000/svg">
<g filter="url(#filter0_d_5203_14072)">
<rect x="10.5" y="7.5" width="60" height="60" rx="3" fill="white"/>
</g>
<rect x="22.5" y="19.5" width="14.6939" height="14.6939" rx="0.734694" fill="url(#paint0_linear_5203_14072)" fill-opacity="0.7"/>
<rect x="43.8062" y="19.5" width="14.6939" height="14.6939" rx="0.734694" fill="url(#paint1_linear_5203_14072)" fill-opacity="0.7"/>
<rect x="22.5" y="40.8062" width="14.6939" height="14.6939" rx="0.734694" fill="url(#paint2_linear_5203_14072)" fill-opacity="0.7"/>
<rect x="43.8062" y="40.8062" width="14.6939" height="14.6939" rx="0.734694" fill="url(#paint3_linear_5203_14072)" fill-opacity="0.7"/>
<g clip-path="url(#paint4_angular_5203_14072_clip_path)" data-figma-skip-parse="true"><g transform="matrix(-0.012 0.012 -0.012 -0.0078989 68.25 65.25)"><foreignObject x="-1206.1" y="-1206.1" width="2412.19" height="2412.19"><div xmlns="http://www.w3.org/1999/xhtml" style="background:conic-gradient(from 90deg,rgba(64, 140, 216, 1) 0deg,rgba(86, 151, 216, 1) 360deg);height:100%;width:100%;opacity:1"></div></foreignObject></g></g><circle cx="68.25" cy="65.25" r="12" data-figma-gradient-fill="{&#34;type&#34;:&#34;GRADIENT_ANGULAR&#34;,&#34;stops&#34;:[{&#34;color&#34;:{&#34;r&#34;:0.25212395191192627,&#34;g&#34;:0.55096060037612915,&#34;b&#34;:0.84979718923568726,&#34;a&#34;:1.0},&#34;position&#34;:0.0},{&#34;color&#34;:{&#34;r&#34;:0.33924937248229980,&#34;g&#34;:0.59262162446975708,&#34;b&#34;:0.84932768344879150,&#34;a&#34;:1.0},&#34;position&#34;:1.0}],&#34;stopsVar&#34;:[{&#34;color&#34;:{&#34;r&#34;:0.25212395191192627,&#34;g&#34;:0.55096060037612915,&#34;b&#34;:0.84979718923568726,&#34;a&#34;:1.0},&#34;position&#34;:0.0},{&#34;color&#34;:{&#34;r&#34;:0.33924937248229980,&#34;g&#34;:0.59262162446975708,&#34;b&#34;:0.84932768344879150,&#34;a&#34;:1.0},&#34;position&#34;:1.0}],&#34;transform&#34;:{&#34;m00&#34;:-24.0,&#34;m01&#34;:-24.0,&#34;m02&#34;:92.250,&#34;m10&#34;:24.0,&#34;m11&#34;:-15.797793388366699,&#34;m12&#34;:61.148899078369141},&#34;opacity&#34;:1.0,&#34;blendMode&#34;:&#34;NORMAL&#34;,&#34;visible&#34;:true}"/>
<g clip-path="url(#clip0_5203_14072)">
<path fill-rule="evenodd" clip-rule="evenodd" d="M68.2499 59.25C68.5425 59.25 68.8084 59.4202 68.931 59.6859L70.2363 62.5159L73.3313 62.8829C73.6218 62.9173 73.8658 63.1176 73.9562 63.3959C74.0467 63.6742 73.967 63.9796 73.7522 64.1783L71.464 66.2943L72.0714 69.3512C72.1284 69.6382 72.0133 69.9321 71.7766 70.1041C71.5399 70.2761 71.2248 70.2947 70.9694 70.1518L68.2499 68.6295L65.5304 70.1518C65.275 70.2947 64.9599 70.2761 64.7232 70.1041C64.4865 69.9321 64.3714 69.6382 64.4284 69.3512L65.0358 66.2943L62.7476 64.1783C62.5328 63.9796 62.4532 63.6742 62.5436 63.3959C62.634 63.1176 62.878 62.9173 63.1686 62.8829L66.2635 62.5159L67.5689 59.6859C67.6914 59.4202 67.9573 59.25 68.2499 59.25ZM68.2499 61.7906L67.4497 63.5254C67.3405 63.7623 67.116 63.9253 66.857 63.9561L64.9599 64.181L66.3625 65.4781C66.554 65.6552 66.6397 65.9191 66.5889 66.1749L66.2165 68.0487L67.8836 67.1156C68.1112 66.9881 68.3886 66.9881 68.6162 67.1156L70.2833 68.0487L69.911 66.1749C69.8601 65.9191 69.9459 65.6552 70.1374 65.4781L71.54 64.181L69.6428 63.9561C69.3838 63.9253 69.1593 63.7623 69.0501 63.5254L68.2499 61.7906Z" fill="white"/>
</g>
<defs>
<filter id="filter0_d_5203_14072" x="9" y="6.75" width="63" height="63" filterUnits="userSpaceOnUse" color-interpolation-filters="sRGB">
<feFlood flood-opacity="0" result="BackgroundImageFix"/>
<feColorMatrix in="SourceAlpha" type="matrix" values="0 0 0 0 0 0 0 0 0 0 0 0 0 0 0 0 0 0 127 0" result="hardAlpha"/>
<feOffset dy="0.75"/>
<feGaussianBlur stdDeviation="0.75"/>
<feComposite in2="hardAlpha" operator="out"/>
<feColorMatrix type="matrix" values="0 0 0 0 0 0 0 0 0 0 0 0 0 0 0 0 0 0 0.3 0"/>
<feBlend mode="normal" in2="BackgroundImageFix" result="effect1_dropShadow_5203_14072"/>
<feBlend mode="normal" in="SourceGraphic" in2="effect1_dropShadow_5203_14072" result="shape"/>
</filter>
<clipPath id="paint4_angular_5203_14072_clip_path"><circle cx="68.25" cy="65.25" r="12"/></clipPath><linearGradient id="paint0_linear_5203_14072" x1="33.5204" y1="19.5" x2="33.6735" y2="33.4286" gradientUnits="userSpaceOnUse">
<stop stop-color="#5797D9"/>
<stop offset="1" stop-color="#408CD9"/>
</linearGradient>
<linearGradient id="paint1_linear_5203_14072" x1="54.8266" y1="19.5" x2="54.9796" y2="33.4286" gradientUnits="userSpaceOnUse">
<stop stop-color="#5797D9"/>
<stop offset="1" stop-color="#408CD9"/>
</linearGradient>
<linearGradient id="paint2_linear_5203_14072" x1="33.5204" y1="40.8062" x2="33.6735" y2="54.7347" gradientUnits="userSpaceOnUse">
<stop stop-color="#5797D9"/>
<stop offset="1" stop-color="#408CD9"/>
</linearGradient>
<linearGradient id="paint3_linear_5203_14072" x1="54.8266" y1="40.8062" x2="54.9796" y2="54.7347" gradientUnits="userSpaceOnUse">
<stop stop-color="#5797D9"/>
<stop offset="1" stop-color="#408CD9"/>
</linearGradient>
<clipPath id="clip0_5203_14072">
<rect width="12" height="12" fill="white" transform="translate(62.25 59.25)"/>
</clipPath>
</defs>
</svg>
